<svg width="16" height="20" viewBox="0 0 16 20" fill="none" xmlns="http://www.w3.org/2000/svg">
<path d="M8.22751 6.0185C7.49751 6.0185 6.36749 5.1885 5.17749 5.2185C3.60749 5.2385 2.16749 6.12849 1.35749 7.53849C-0.272511 10.3685 0.93749 14.5485 2.52749 16.8485C3.30749 17.9685 4.22749 19.2285 5.44749 19.1885C6.61749 19.1385 7.05751 18.4285 8.47751 18.4285C9.88751 18.4285 10.2875 19.1885 11.5275 19.1585C12.7875 19.1385 13.5875 18.0185 14.3575 16.8885C15.2475 15.5885 15.6175 14.3285 15.6375 14.2585C15.6075 14.2485 13.1875 13.3185 13.1575 10.5185C13.1375 8.17849 15.0675 7.0585 15.1575 7.0085C14.0575 5.3985 12.3675 5.2185 11.7775 5.1785C10.2375 5.0585 8.94751 6.0185 8.22751 6.0185ZM10.8275 3.6585C11.4775 2.8785 11.9075 1.7885 11.7875 0.708496C10.8575 0.748496 9.73751 1.3285 9.06751 2.1085C8.46751 2.7985 7.94751 3.9085 8.08751 4.9685C9.11751 5.0485 10.1775 4.4385 10.8275 3.6585Z" fill="white"/>
</svg>
