<svg width="52" height="52" viewBox="0 0 52 52" fill="none" xmlns="http://www.w3.org/2000/svg">
<rect x="0.5" y="0.5" width="51" height="51" rx="11.5" stroke="#00FFEB"/>
<path d="M37.6663 36.7914C37.6663 37.2697 37.2697 37.6664 36.7913 37.6664H15.208C14.7297 37.6664 14.333 37.2697 14.333 36.7914C14.333 36.313 14.7297 35.9164 15.208 35.9164H36.7913C37.2697 35.9164 37.6663 36.313 37.6663 36.7914Z" fill="#00FFEB"/>
<path d="M29.9553 17.2735L17.4253 29.8035C16.947 30.2818 16.177 30.2818 15.7103 29.8035H15.6987C14.077 28.1702 14.077 25.5335 15.6987 23.9118L24.0403 15.5702C25.6737 13.9368 28.3103 13.9368 29.9437 15.5702C30.422 16.0252 30.422 16.8068 29.9553 17.2735Z" fill="#00FFEB"/>
<path d="M36.29 21.9049L32.7317 18.3466C32.2533 17.8683 31.4833 17.8683 31.0167 18.3466L18.4867 30.8766C18.0083 31.3433 18.0083 32.1133 18.4867 32.5916L22.045 36.1616C23.6783 37.7833 26.315 37.7833 27.9483 36.1616L36.2783 27.8199C37.935 26.1866 37.935 23.5383 36.29 21.9049ZM26.8867 32.4399L25.475 33.8633C25.1833 34.1549 24.705 34.1549 24.4017 33.8633C24.11 33.5716 24.11 33.0933 24.4017 32.7899L25.825 31.3666C26.105 31.0866 26.595 31.0866 26.8867 31.3666C27.1783 31.6583 27.1783 32.1599 26.8867 32.4399ZM31.5183 27.8083L28.6717 30.6666C28.38 30.9466 27.9017 30.9466 27.5983 30.6666C27.3067 30.3749 27.3067 29.8966 27.5983 29.5933L30.4567 26.7349C30.7367 26.4549 31.2267 26.4549 31.5183 26.7349C31.81 27.0383 31.81 27.5166 31.5183 27.8083Z" fill="#00FFEB"/>
</svg>
