<svg width="52" height="52" viewBox="0 0 52 52" fill="none" xmlns="http://www.w3.org/2000/svg">
<rect x="0.5" y="0.5" width="51" height="51" rx="11.5" stroke="#00FFEB"/>
<path d="M31.8337 37.6667H20.167C19.6887 37.6667 19.292 37.27 19.292 36.7917C19.292 36.3134 19.6887 35.9167 20.167 35.9167H31.8337C32.312 35.9167 32.7087 36.3134 32.7087 36.7917C32.7087 37.27 32.312 37.6667 31.8337 37.6667Z" fill="#00FFEB"/>
<path d="M35.7419 18.44L31.0753 21.7767C30.4569 22.22 29.5703 21.9517 29.3019 21.24L27.0969 15.36C26.7236 14.345 25.2886 14.345 24.9153 15.36L22.6986 21.2283C22.4303 21.9517 21.5553 22.22 20.9369 21.765L16.2703 18.4283C15.3369 17.775 14.1003 18.6967 14.4853 19.7817L19.3386 33.3733C19.5019 33.84 19.9453 34.1433 20.4353 34.1433H31.5536C32.0436 34.1433 32.4869 33.8283 32.6503 33.3733L37.5036 19.7817C37.9003 18.6967 36.6636 17.775 35.7419 18.44ZM28.9169 29.2083H23.0836C22.6053 29.2083 22.2086 28.8117 22.2086 28.3333C22.2086 27.855 22.6053 27.4583 23.0836 27.4583H28.9169C29.3953 27.4583 29.7919 27.855 29.7919 28.3333C29.7919 28.8117 29.3953 29.2083 28.9169 29.2083Z" fill="#00FFEB"/>
</svg>
