<svg width="52" height="52" viewBox="0 0 52 52" fill="none" xmlns="http://www.w3.org/2000/svg">
<rect x="0.5" y="0.5" width="51" height="51" rx="11.5" stroke="#00FFEB"/>
<path d="M21.7881 33.5717V21.7183C21.7881 21.2517 21.9281 20.7967 22.1848 20.4117L25.3698 15.675C25.8714 14.9167 27.1198 14.38 28.1814 14.7767C29.3248 15.1617 30.0831 16.445 29.8381 17.5883L29.2314 21.4033C29.1848 21.7533 29.2781 22.0683 29.4764 22.3133C29.6748 22.535 29.9664 22.675 30.2814 22.675H35.0764C35.9981 22.675 36.7914 23.0483 37.2581 23.7017C37.7014 24.3317 37.7831 25.1483 37.4914 25.9767L34.6214 34.715C34.2598 36.1617 32.6848 37.34 31.1214 37.34H26.5714C25.7898 37.34 24.6931 37.0717 24.1914 36.57L22.6981 35.415C22.1264 34.9833 21.7881 34.295 21.7881 33.5717Z" fill="#00FFEB"/>
<path d="M18.078 19.4434H16.8763C15.068 19.4434 14.333 20.1434 14.333 21.87V33.6067C14.333 35.3334 15.068 36.0334 16.8763 36.0334H18.078C19.8863 36.0334 20.6213 35.3334 20.6213 33.6067V21.87C20.6213 20.1434 19.8863 19.4434 18.078 19.4434Z" fill="#00FFEB"/>
</svg>
