<svg width="22" height="22" viewBox="0 0 22 22" fill="none" xmlns="http://www.w3.org/2000/svg">
<path d="M11.0007 8.24967C9.48139 8.24967 8.25065 9.48085 8.25065 10.9997C8.25065 12.5189 9.48185 13.7497 11.0007 13.7497C12.5199 13.7497 13.7507 12.5185 13.7507 10.9997C13.7507 9.48048 12.5195 8.24967 11.0007 8.24967ZM11.0007 6.41634C13.531 6.41634 15.584 8.46702 15.584 10.9997C15.584 13.5301 13.5333 15.583 11.0007 15.583C8.47022 15.583 6.41732 13.5323 6.41732 10.9997C6.41732 8.46924 8.46799 6.41634 11.0007 6.41634ZM16.959 6.1864C16.959 6.819 16.4449 7.33225 15.8132 7.33225C15.1806 7.33225 14.6673 6.81821 14.6673 6.1864C14.6673 5.55458 15.1813 5.04134 15.8132 5.04134C16.4441 5.04054 16.959 5.55458 16.959 6.1864ZM11.0007 3.66634C8.73238 3.66634 8.36267 3.67235 7.30767 3.71932C6.58889 3.75307 6.10707 3.84974 5.6594 4.02354C5.26157 4.17783 4.97459 4.36207 4.66881 4.66785C4.36187 4.97479 4.17796 5.261 4.02429 5.65902C3.85008 6.10772 3.75344 6.58878 3.7203 7.30656C3.67286 8.31861 3.66732 8.6723 3.66732 10.9997C3.66732 13.268 3.67332 13.6377 3.72029 14.6926C3.75405 15.411 3.85085 15.8936 4.02423 16.3402C4.17893 16.7386 4.36354 17.0262 4.66784 17.3305C4.976 17.6383 5.26306 17.8228 5.6573 17.975C6.11043 18.1501 6.59194 18.2469 7.30753 18.28C8.31958 18.3274 8.67328 18.333 11.0007 18.333C13.269 18.333 13.6387 18.327 14.6936 18.28C15.4105 18.2464 15.8934 18.1493 16.3412 17.9761C16.7385 17.8218 17.027 17.6365 17.3315 17.3325C17.6397 17.0238 17.8239 16.7375 17.9762 16.3423C18.1509 15.8908 18.2479 15.4087 18.281 14.6928C18.3284 13.6807 18.334 13.327 18.334 10.9997C18.334 8.7314 18.328 8.3617 18.281 7.30676C18.2473 6.58965 18.1502 6.10604 17.9768 5.65842C17.8229 5.26169 17.638 4.97383 17.3325 4.66785C17.025 4.3604 16.7396 4.17686 16.3413 4.02331C15.8929 3.84925 15.4111 3.75247 14.6937 3.71933C13.6817 3.67189 13.328 3.66634 11.0007 3.66634ZM11.0007 1.83301C13.4909 1.83301 13.8018 1.84217 14.7796 1.88801C15.7551 1.93308 16.4205 2.08738 17.0048 2.31426C17.609 2.54725 18.1193 2.86197 18.6288 3.37148C19.1376 3.881 19.4523 4.3928 19.6861 4.99551C19.9121 5.57912 20.0665 6.24523 20.1123 7.22072C20.1559 8.1985 20.1673 8.50939 20.1673 10.9997C20.1673 13.49 20.1582 13.8008 20.1123 14.7786C20.0672 15.7541 19.9121 16.4195 19.6861 17.0038C19.4531 17.6081 19.1376 18.1183 18.6288 18.6279C18.1193 19.1366 17.6067 19.4513 17.0048 19.6851C16.4205 19.9112 15.7551 20.0655 14.7796 20.1113C13.8018 20.1549 13.4909 20.1663 11.0007 20.1663C8.51037 20.1663 8.19946 20.1572 7.22169 20.1113C6.2462 20.0662 5.58162 19.9112 4.99648 19.6851C4.39301 19.4521 3.88196 19.1366 3.37245 18.6279C2.86294 18.1183 2.54898 17.6058 2.31523 17.0038C2.08836 16.4195 1.93482 15.7541 1.88898 14.7786C1.84544 13.8008 1.83398 13.49 1.83398 10.9997C1.83398 8.50939 1.84315 8.1985 1.88898 7.22072C1.93405 6.24447 2.08836 5.57988 2.31523 4.99551C2.54821 4.39204 2.86294 3.881 3.37245 3.37148C3.88196 2.86197 4.39378 2.54801 4.99648 2.31426C5.58086 2.08738 6.24544 1.93384 7.22169 1.88801C8.19946 1.84447 8.51037 1.83301 11.0007 1.83301Z" fill="white"/>
</svg>
