<svg width="22" height="22" viewBox="0 0 22 22" fill="none" xmlns="http://www.w3.org/2000/svg">
<path d="M6.36203 4.58319C6.36169 5.32964 5.90882 6.00135 5.21698 6.28159C4.52513 6.56183 3.73247 6.39463 3.21274 5.85884C2.69302 5.32304 2.55004 4.52564 2.85121 3.84265C3.15239 3.15966 3.83758 2.72746 4.58369 2.74985C5.57467 2.7796 6.36247 3.59176 6.36203 4.58319ZM6.41703 7.77319H2.75036V19.2498H6.41703V7.77319ZM12.2104 7.77319H8.56203V19.2498H12.1737V13.2273C12.1737 9.87233 16.5462 9.56066 16.5462 13.2273V19.2498H20.167V11.9807C20.167 6.32485 13.6954 6.53569 12.1737 9.31316L12.2104 7.77319Z" fill="white"/>
</svg>
