<svg width="21" height="20" viewBox="0 0 21 20" fill="none" xmlns="http://www.w3.org/2000/svg">
<path d="M3.50826 1.51172L11.9943 10.0001L3.50918 18.4888C3.34829 18.4208 3.20738 18.3018 3.11312 18.139C3.03966 18.0121 3.00098 17.8681 3.00098 17.7214V2.27886C3.00098 1.93433 3.21006 1.63863 3.50826 1.51172ZM12.5835 10.5893L14.5018 12.5076L5.38764 17.7851L12.5835 10.5893ZM15.2493 7.92422L17.5886 9.279C17.9869 9.50958 18.1229 10.0194 17.8922 10.4177C17.8193 10.5437 17.7147 10.6484 17.5886 10.7213L15.2485 12.0759L13.1727 10.0001L15.2493 7.92422ZM5.38764 2.21505L14.5027 7.49172L12.5835 9.41092L5.38764 2.21505Z" fill="white"/>
</svg>
