<svg width="49" height="48" viewBox="0 0 49 48" fill="none" xmlns="http://www.w3.org/2000/svg">
<rect x="0.833008" y="0.5" width="47" height="47" rx="9.5" fill="#00FFEB" fill-opacity="0.12" stroke="#00FFEB"/>
<path d="M22.7118 14.2301L17.7218 16.1101C16.5718 16.5401 15.6318 17.9001 15.6318 19.1201V26.5501C15.6318 27.7301 16.4118 29.2801 17.3618 29.9901L21.6618 33.2001C23.0718 34.2601 25.3918 34.2601 26.8018 33.2001L31.1018 29.9901C32.0518 29.2801 32.8318 27.7301 32.8318 26.5501V19.1201C32.8318 17.8901 31.8918 16.5301 30.7418 16.1001L25.7518 14.2301C24.9018 13.9201 23.5418 13.9201 22.7118 14.2301Z" stroke="#00FFEB" stroke-width="2" stroke-linecap="round" stroke-linejoin="round"/>
<path d="M24.2217 24.5C25.3262 24.5 26.2217 23.6046 26.2217 22.5C26.2217 21.3954 25.3262 20.5 24.2217 20.5C23.1171 20.5 22.2217 21.3954 22.2217 22.5C22.2217 23.6046 23.1171 24.5 24.2217 24.5Z" stroke="#00FFEB" stroke-width="2" stroke-miterlimit="10" stroke-linecap="round" stroke-linejoin="round"/>
<path d="M24.2217 24.5V27.5" stroke="#00FFEB" stroke-width="2" stroke-miterlimit="10" stroke-linecap="round" stroke-linejoin="round"/>
</svg>
