<svg width="49" height="48" viewBox="0 0 49 48" fill="none" xmlns="http://www.w3.org/2000/svg">
<rect x="1.16699" y="0.5" width="47" height="47" rx="9.5" fill="#00FFEB" fill-opacity="0.12" stroke="#00FFEB"/>
<path d="M29.667 30.4302H25.667L21.217 33.3902C20.557 33.8302 19.667 33.3602 19.667 32.5602V30.4302C16.667 30.4302 14.667 28.4302 14.667 25.4302V19.4302C14.667 16.4302 16.667 14.4302 19.667 14.4302H29.667C32.667 14.4302 34.667 16.4302 34.667 19.4302V25.4302C34.667 28.4302 32.667 30.4302 29.667 30.4302Z" stroke="#00FFEB" stroke-width="2" stroke-miterlimit="10" stroke-linecap="round" stroke-linejoin="round"/>
<path d="M24.6668 23.3604V23.1504C24.6668 22.4704 25.0868 22.1104 25.5068 21.8204C25.9168 21.5404 26.3268 21.1804 26.3268 20.5204C26.3268 19.6004 25.5868 18.8604 24.6668 18.8604C23.7468 18.8604 23.0068 19.6004 23.0068 20.5204" stroke="#00FFEB" stroke-width="2" stroke-linecap="round" stroke-linejoin="round"/>
<path d="M24.6625 25.75H24.6715" stroke="#00FFEB" stroke-width="2" stroke-linecap="round" stroke-linejoin="round"/>
</svg>
