<svg width="45" height="45" viewBox="0 0 45 45" fill="none" xmlns="http://www.w3.org/2000/svg">
<rect x="0.716797" y="0.5" width="44" height="44" rx="10" fill="#00FFEB" fill-opacity="0.12"/>
<rect x="1.2168" y="1" width="43" height="43" rx="9.5" stroke="#00FFEB" stroke-opacity="0.23"/>
<path d="M29.8868 17.14C29.4568 14.97 27.8468 14.02 25.6068 14.02H16.8268C14.1868 14.02 12.4268 15.34 12.4268 18.42V23.57C12.4268 25.79 13.3368 27.09 14.8368 27.65C15.0568 27.73 15.2968 27.8 15.5468 27.84C15.9468 27.93 16.3768 27.97 16.8268 27.97H25.6168C28.2568 27.97 30.0168 26.65 30.0168 23.57V18.42C30.0168 17.95 29.9768 17.53 29.8868 17.14ZM16.2468 22.5C16.2468 22.91 15.9068 23.25 15.4968 23.25C15.0868 23.25 14.7468 22.91 14.7468 22.5V19.5C14.7468 19.09 15.0868 18.75 15.4968 18.75C15.9068 18.75 16.2468 19.09 16.2468 19.5V22.5ZM21.2168 23.64C19.7568 23.64 18.5768 22.46 18.5768 21C18.5768 19.54 19.7568 18.36 21.2168 18.36C22.6768 18.36 23.8568 19.54 23.8568 21C23.8568 22.46 22.6768 23.64 21.2168 23.64ZM27.6768 22.5C27.6768 22.91 27.3368 23.25 26.9268 23.25C26.5168 23.25 26.1768 22.91 26.1768 22.5V19.5C26.1768 19.09 26.5168 18.75 26.9268 18.75C27.3368 18.75 27.6768 19.09 27.6768 19.5V22.5Z" fill="#00FFEB"/>
<path d="M33.0166 21.42V26.57C33.0166 29.65 31.2566 30.98 28.6066 30.98H19.8266C19.0766 30.98 18.4066 30.87 17.8266 30.65C17.3566 30.48 16.9466 30.23 16.6166 29.91C16.4366 29.74 16.5766 29.47 16.8266 29.47H25.6066C29.3066 29.47 31.5066 27.27 31.5066 23.58V18.42C31.5066 18.18 31.7766 18.03 31.9466 18.21C32.6266 18.93 33.0166 19.98 33.0166 21.42Z" fill="#00FFEB"/>
</svg>
