<svg width="45" height="45" viewBox="0 0 45 45" fill="none" xmlns="http://www.w3.org/2000/svg">
<rect x="0.5" y="0.5" width="44" height="44" rx="10" fill="#00FFEB" fill-opacity="0.12"/>
<rect x="1" y="1" width="43" height="43" rx="9.5" stroke="#00FFEB" stroke-opacity="0.23"/>
<path d="M32.5 18.31V23H28.42C28.3 22.99 28.04 22.84 27.98 22.73L26.94 20.76C26.53 19.98 25.82 19.54 25.06 19.58C24.3 19.62 23.65 20.13 23.32 20.96L21.94 24.42L21.74 23.9C21.25 22.63 19.85 21.67 18.47 21.67L12.5 21.7V18.31C12.5 14.67 14.67 12.5 18.31 12.5H26.69C30.33 12.5 32.5 14.67 32.5 18.31Z" fill="#00FFEB"/>
<path d="M32.5 26.69V24.5H28.42C27.75 24.5 26.96 24.02 26.65 23.43L25.61 21.46C25.33 20.93 24.93 20.96 24.71 21.51L22.41 27.32C22.16 27.97 21.74 27.97 21.48 27.32L20.34 24.44C20.07 23.74 19.23 23.17 18.48 23.17L12.5 23.2V26.69C12.5 30.27 14.6 32.43 18.13 32.49C18.24 32.5 18.36 32.5 18.47 32.5H26.47C26.62 32.5 26.77 32.5 26.91 32.49C30.42 32.41 32.5 30.26 32.5 26.69Z" fill="#00FFEB"/>
<path d="M12.4997 23.2V26.51C12.4797 26.19 12.4697 25.85 12.4697 25.5V23.2H12.4997Z" fill="#00FFEB"/>
</svg>
