<svg width="45" height="45" viewBox="0 0 45 45" fill="none" xmlns="http://www.w3.org/2000/svg">
<rect x="0.716797" y="0.5" width="44" height="44" rx="10" fill="#00FFEB" fill-opacity="0.12"/>
<rect x="1.2168" y="1" width="43" height="43" rx="9.5" stroke="#00FFEB" stroke-opacity="0.23"/>
<path d="M31.7168 33.25H13.7168C13.3068 33.25 12.9668 32.91 12.9668 32.5C12.9668 32.09 13.3068 31.75 13.7168 31.75H31.7168C32.1268 31.75 32.4668 32.09 32.4668 32.5C32.4668 32.91 32.1268 33.25 31.7168 33.25Z" fill="#00FFEB"/>
<path d="M16.3168 18.88H14.7168C14.1668 18.88 13.7168 19.33 13.7168 19.88V28.5C13.7168 29.05 14.1668 29.5 14.7168 29.5H16.3168C16.8668 29.5 17.3168 29.05 17.3168 28.5V19.88C17.3168 19.32 16.8668 18.88 16.3168 18.88Z" fill="#00FFEB"/>
<path d="M23.517 15.69H21.917C21.367 15.69 20.917 16.14 20.917 16.69V28.5C20.917 29.05 21.367 29.5 21.917 29.5H23.517C24.067 29.5 24.517 29.05 24.517 28.5V16.69C24.517 16.14 24.067 15.69 23.517 15.69Z" fill="#00FFEB"/>
<path d="M30.7172 12.5H29.1172C28.5672 12.5 28.1172 12.95 28.1172 13.5V28.5C28.1172 29.05 28.5672 29.5 29.1172 29.5H30.7172C31.2672 29.5 31.7172 29.05 31.7172 28.5V13.5C31.7172 12.95 31.2672 12.5 30.7172 12.5Z" fill="#00FFEB"/>
</svg>
