<svg width="45" height="45" viewBox="0 0 45 45" fill="none" xmlns="http://www.w3.org/2000/svg">
<rect x="0.5" y="0.5" width="44" height="44" rx="10" fill="#00FFEB" fill-opacity="0.12"/>
<rect x="1" y="1" width="43" height="43" rx="9.5" stroke="#00FFEB" stroke-opacity="0.23"/>
<path d="M26.69 12.5H18.31C14.67 12.5 12.5 14.67 12.5 18.31V26.69C12.5 29.5 13.79 31.43 16.06 32.16C16.72 32.39 17.48 32.5 18.31 32.5H26.69C27.52 32.5 28.28 32.39 28.94 32.16C31.21 31.43 32.5 29.5 32.5 26.69V18.31C32.5 14.67 30.33 12.5 26.69 12.5ZM31 26.69C31 28.83 30.16 30.18 28.47 30.74C27.5 28.83 25.2 27.47 22.5 27.47C19.8 27.47 17.51 28.82 16.53 30.74H16.52C14.85 30.2 14 28.84 14 26.7V18.31C14 15.49 15.49 14 18.31 14H26.69C29.51 14 31 15.49 31 18.31V26.69Z" fill="#00FFEB"/>
<path d="M22.4999 18.5C20.5199 18.5 18.9199 20.1 18.9199 22.08C18.9199 24.06 20.5199 25.67 22.4999 25.67C24.4799 25.67 26.0799 24.06 26.0799 22.08C26.0799 20.1 24.4799 18.5 22.4999 18.5Z" fill="#00FFEB"/>
</svg>
