<svg width="22" height="22" viewBox="0 0 22 22" fill="none" xmlns="http://www.w3.org/2000/svg">
<path d="M11.2242 3.66699C11.7138 3.66969 12.9388 3.68153 14.2402 3.73366L14.7017 3.75378C16.0121 3.81582 17.3213 3.92181 17.9707 4.10287C18.8369 4.3462 19.5177 5.0562 19.7478 5.9562C20.1142 7.38537 20.16 10.1748 20.1657 10.8498L20.1665 10.9897V10.9995C20.1665 10.9995 20.1665 11.0029 20.1665 11.0094L20.1657 11.1493C20.16 11.8243 20.1142 14.6137 19.7478 16.0429C19.5145 16.9462 18.8337 17.6562 17.9707 17.8962C17.3213 18.0773 16.0121 18.1832 14.7017 18.2453L14.2402 18.2654C12.9388 18.3175 11.7138 18.3294 11.2242 18.3321L11.0094 18.3328H10.9998C10.9998 18.3328 10.9966 18.3328 10.9903 18.3328L10.7756 18.3321C9.73941 18.3264 5.40689 18.2796 4.02895 17.8962C3.16278 17.6529 2.48199 16.9429 2.25187 16.0429C1.8855 14.6137 1.8397 11.8243 1.83398 11.1493V10.8498C1.8397 10.1748 1.8855 7.38537 2.25187 5.9562C2.48518 5.05286 3.16597 4.34287 4.02895 4.10287C5.40689 3.71945 9.73941 3.67269 10.7756 3.66699H11.2242ZM9.1665 7.7912V14.2078L14.6665 10.9995L9.1665 7.7912Z" fill="white"/>
</svg>
